<svg xmlns="http://www.w3.org/2000/svg" viewBox="0 0 796 224.14"><defs><style>.cls-1{fill:#ee9c6a;}.cls-2{fill:#80beaf;}.cls-3{fill:#f5b994;}.cls-4{fill:#b3ddd1;}</style></defs><g id="Layer_2" data-name="Layer 2"><g id="Capa_1" data-name="Capa 1"><path class="cls-1" d="M290.44,15c-.1-1.09-.26-2.28-.47-3.56q-.92-5.58-3.07-8.16A7,7,0,0,0,282.46.61a5.46,5.46,0,0,0-.9-.07,7.76,7.76,0,0,0-3.93,1.17,11,11,0,0,0-3.58,3.54,41.16,41.16,0,0,0-3.21,6.57L270,14l-.66-1a5.17,5.17,0,0,0-4.64-2.52h-.46a6.37,6.37,0,0,0-3.24.77,7.89,7.89,0,0,0-1.8,1.5,19.66,19.66,0,0,0-1.8,2.2A24.12,24.12,0,0,0,256,17.25c-.4.75-.94,1.92-1.64,3.51l-1.08,2.41.07-3.11c0-.89.05-2,.1-3.23s.08-2.43.1-3.48c.1-2.53.15-4.85.15-6.94a28.58,28.58,0,0,0-.15-3.88A2.6,2.6,0,0,0,252.26.65a8.2,8.2,0,0,0-6.56.07c-.68.37-1.19,1.42-1.55,3.16a52.44,52.44,0,0,0-.76,7.94c0,1.35-.06,2.76-.06,4.22,0,.49,0,1.38,0,2.66s.11,3.51.3,6.7a131.49,131.49,0,0,0,1.74,16.9c.56,3.19,1.15,5.26,1.75,6.21a2.88,2.88,0,0,0,2.62,1.26,2.42,2.42,0,0,0,.45,0c1.26,0,2.07-.25,2.45-.76a4,4,0,0,0,.36-1.66c.09-.9.13-2.35.13-4.35a53.53,53.53,0,0,1,2.27-14.91,46.43,46.43,0,0,1,2.86-7.36,25.79,25.79,0,0,1,3.49-5.55l.56-.63.07,1.18c0,.38,0,1.29.05,2.74s0,3.12,0,5v5.52a11.67,11.67,0,0,0,.15,2.06,14.07,14.07,0,0,0,.48,1.71,5.48,5.48,0,0,0,.7,1.51,2.43,2.43,0,0,0,1,.83,2.4,2.4,0,0,0,.81.26c.28,0,.73.05,1.36.05a6.5,6.5,0,0,0,1.79-.19,2.1,2.1,0,0,0,1-.65,5.76,5.76,0,0,0,.72-1.29,12.31,12.31,0,0,0,.65-1.85,22.82,22.82,0,0,0,.45-3.81c0-.69,0-1.42,0-2.16,0-1,0-2-.07-3l-.14-2.9.49-1.61Q274.71,9,278.76,4.52l1.05-1.08.21.45a19.16,19.16,0,0,1,.54,2c.2.86.36,1.7.47,2.51a78.28,78.28,0,0,1,.56,11.17q0,3.18-.1,7.06c0,1.44,0,2.88,0,4.33q0,3.63.16,8.32a71.2,71.2,0,0,0,.57,7.6,4.8,4.8,0,0,0,.74,2.27,2.72,2.72,0,0,0,1.74.87,6.81,6.81,0,0,0,1,.07,8.91,8.91,0,0,0,1.3-.12,2.93,2.93,0,0,0,1.35-.55,1.64,1.64,0,0,0,.56-.78,8.5,8.5,0,0,0,.35-1.85c.09-.87.19-2.14.31-3.79q.1-1.32.21-2.79c.07-1,.14-1.78.21-2.41.21-2.56.39-5.83.56-9.81.11-3,.17-5.45.17-7.33q0-.95,0-1.71C290.62,17.39,290.55,16.09,290.44,15Z"/><path class="cls-1" d="M326.66,28.61c-.6,0-1,.15-1.17.46a3.79,3.79,0,0,0-.33,1.5q-.06.73-.21,1.59c-.09.57-.2,1.07-.31,1.51a24.23,24.23,0,0,1-1.33,3.77,17.17,17.17,0,0,1-1.64,3c-.19.25-.39.51-.61.77l-.58.66c-.16.19-.26.28-.31.28l0-1.19c0-.79-.08-1.77-.1-2.93A70.66,70.66,0,0,0,319,25.64c-.42-2-1.19-3.22-2.31-3.73a4.67,4.67,0,0,0-1.64-.28l-.84,0a2.3,2.3,0,0,0-1.25.53,1.62,1.62,0,0,0-.53,1,17.77,17.77,0,0,0-.24,2.6c-.05.84-.11,1.5-.18,2a11,11,0,0,1-.38,1.71,22.33,22.33,0,0,1-3.21,7.05c-.28.4-.59.79-.93,1.19s-.64.73-.9,1-.44.41-.51.41-.13-.16-.24-.48a9.26,9.26,0,0,1-.34-1.18c-.1-.48-.2-1-.29-1.45a42.61,42.61,0,0,1-.42-6.46c0-1,0-2.11.07-3.25s.1-2,.1-2.72c0-.35,0-.79,0-1.33a2.42,2.42,0,0,0-.37-1.27,2,2,0,0,0-1.06-.72,6.17,6.17,0,0,0-2.31-.42c-.19,0-.59,0-1.22.07a4.14,4.14,0,0,0-1.92.7,6.44,6.44,0,0,0-1.78,3.53,8.59,8.59,0,0,0-.3,2.28c0,.53,0,1.29,0,2.29,0,1.72.05,3.11.14,4.17a19.31,19.31,0,0,0,.46,2.85q1.81,7.13,8.17,7.12h.59a6.47,6.47,0,0,0,3.6-1,8.25,8.25,0,0,0,2.44-2.93l.35-.56c.07-.11.13-.17.18-.17v.14c0,.18,0,.57-.06,1.15s-.09,1.36-.17,2.32-.16,1.89-.25,2.76-.15,1.52-.22,1.94a1.42,1.42,0,0,1-.13.38.43.43,0,0,1-.15.21,4.53,4.53,0,0,1-.75.28c-.43.14-.93.29-1.49.45q-5.34,1.61-7.05,3.56a7.73,7.73,0,0,0-1.78,4.54q0,.31,0,.63a8.46,8.46,0,0,0,1.11,4.23,6,6,0,0,0,4.12,3,7.64,7.64,0,0,0,1.26.1,10.12,10.12,0,0,0,4.1-1,12,12,0,0,0,4-3A23.41,23.41,0,0,0,318,53.23a22.38,22.38,0,0,0,1.66-7.3.56.56,0,0,1,.16-.39,3.48,3.48,0,0,1,.57-.45,15.23,15.23,0,0,0,2.95-2.74,17.28,17.28,0,0,0,2.4-3.51,25.06,25.06,0,0,0,1.57-4.61,19.84,19.84,0,0,0,.7-4.5,1.26,1.26,0,0,0-.25-.86A1.65,1.65,0,0,0,326.66,28.61ZM310.52,50.76c-.13.71-.27,1.44-.41,2.19s-.25,1.29-.34,1.64a20.91,20.91,0,0,1-1.92,4.57c-.59,1.07-1.07,1.63-1.47,1.68h-.07q-.56,0-1.47-1.89a7,7,0,0,1-.59-2.76,9.46,9.46,0,0,1,.56-2.72,5.38,5.38,0,0,1,2.86-2.93,19.71,19.71,0,0,1,2.1-.88,4,4,0,0,1,.83-.21c.07,0,.11,0,.11,0S310.64,50.05,310.52,50.76Z"/><path class="cls-1" d="M434,32.77q-.27-2.72-.78-5.9-1.51-9.26-5.1-13.55-3.42-3.93-7.35-4.4a10.81,10.81,0,0,0-1.5-.11,12.94,12.94,0,0,0-6.52,1.94,18.28,18.28,0,0,0-5.93,5.87,68.8,68.8,0,0,0-5.33,10.89L400,31.09l-1.1-1.62q-2.43-4-7.7-4.16h-.75a10.59,10.59,0,0,0-5.39,1.27,13.65,13.65,0,0,0-3,2.49,31.81,31.81,0,0,0-3,3.64,42.58,42.58,0,0,0-2.26,3.8q-1,1.88-2.72,5.81l-1.79,4,.12-5.15c0-1.47.09-3.25.17-5.36s.13-4,.17-5.76c.16-4.2.23-8,.23-11.52a49.67,49.67,0,0,0-.23-6.42A4.38,4.38,0,0,0,370.66,9a13.66,13.66,0,0,0-10.88.12c-1.12.62-2,2.36-2.58,5.24A86.84,86.84,0,0,0,356,27.51c-.08,2.23-.12,4.57-.12,7,0,.81,0,2.28,0,4.4s.18,5.83.49,11.11a213.94,213.94,0,0,0,2.9,28q1.38,7.93,2.89,10.3a4.77,4.77,0,0,0,4.34,2.09,5.14,5.14,0,0,0,.75-.06c2.09,0,3.44-.43,4.06-1.27a6.5,6.5,0,0,0,.6-2.75q.21-2.23.21-7.21a89,89,0,0,1,3.76-24.72,78.5,78.5,0,0,1,4.75-12.21A43.65,43.65,0,0,1,386.4,33l.93-1,.12,2c0,.62.06,2.13.08,4.54s0,5.17,0,8.25v9.15a18.54,18.54,0,0,0,.26,3.41,21.56,21.56,0,0,0,.79,2.84,9.34,9.34,0,0,0,1.15,2.52A4.17,4.17,0,0,0,391.38,66a3.64,3.64,0,0,0,1.33.43,19.92,19.92,0,0,0,2.26.09,11,11,0,0,0,3-.32,3.42,3.42,0,0,0,1.71-1.07A10,10,0,0,0,400.85,63a20.32,20.32,0,0,0,1.07-3.07,39,39,0,0,0,.75-6.31c0-1.16.06-2.35.06-3.59q0-2.43-.12-5l-.23-4.8.81-2.66q4.69-14.7,11.4-22.17l1.74-1.8.35.76a28.43,28.43,0,0,1,.9,3.24q.48,2.13.78,4.17.92,5.67.92,18.52c0,3.51,0,7.41-.17,11.69,0,2.39-.06,4.79-.06,7.18q0,6,.26,13.8a119.1,119.1,0,0,0,1,12.59,7.93,7.93,0,0,0,1.21,3.77,4.52,4.52,0,0,0,2.9,1.44,11.45,11.45,0,0,0,1.68.12,15.37,15.37,0,0,0,2.17-.2,5,5,0,0,0,2.23-.9,2.74,2.74,0,0,0,.92-1.3,13.28,13.28,0,0,0,.58-3.07c.15-1.45.33-3.54.52-6.28.12-1.47.23-3,.35-4.63s.23-3,.35-4q.51-6.36.92-16.26.28-7.47.29-12.16c0-1,0-2-.06-2.83C434.26,36.75,434.13,34.59,434,32.77Z"/><path class="cls-1" d="M795.83,56a2,2,0,0,0-.58-.34,5.06,5.06,0,0,0-1.85-.29,4.85,4.85,0,0,0-1.8.29h-.17a.9.9,0,0,0-.32.17,1.1,1.1,0,0,0-.29.46,10.61,10.61,0,0,0-.35,1.1c-.13.51-.31,1.2-.52,2.09s-.47,2-.78,3.36c-.12.42-.23.86-.35,1.33Q786.45,74.5,783.73,79q-2.73,4.76-4.81,4.87h-.11q-2.09,0-3.48-5.91a41.17,41.17,0,0,1-1-7.06c-.08-1.47-.12-3.45-.12-6q0-2.79.06-6.43c0-3.93.05-6.79,0-8.56a23,23,0,0,0-.14-3.07,5.13,5.13,0,0,0-3.71-3.3,16,16,0,0,0-8.1,0A6.42,6.42,0,0,0,759,45.68,10.25,10.25,0,0,0,757.27,50a48.77,48.77,0,0,0-.63,8.69c0,.23,0,1,0,2.34a155.08,155.08,0,0,1-5.55,15A99.22,99.22,0,0,1,743,91.7q-3.46,5.14-5,5.15a.81.81,0,0,1-.64-.35,5.42,5.42,0,0,1-.63-3.12,38.35,38.35,0,0,1,.63-6q.81-5.33,5.56-20.49,1.27-4.23,1.85-6.46a14.39,14.39,0,0,0,.58-3.33,3.8,3.8,0,0,0-.46-1.91q-.81-1.79-4.52-2.31a10.17,10.17,0,0,0-2-.23,7.9,7.9,0,0,0-1.57.2,11,11,0,0,0-2.6,1.13l-.47.23a38.37,38.37,0,0,1-3.93,1.91,9.29,9.29,0,0,1-3.07.7,5.2,5.2,0,0,1-1.48-.29,8.19,8.19,0,0,1-2.63-2.2l.64-.76a35.39,35.39,0,0,0,5-7.26,14.84,14.84,0,0,0,1.3-6.22,8.64,8.64,0,0,0-1.71-5.56A7.24,7.24,0,0,0,723.59,32a15.71,15.71,0,0,0-2.61-.23,11.58,11.58,0,0,0-7.06,2.31,15.86,15.86,0,0,0-6.31,12.62,12.45,12.45,0,0,0,2.49,7.85,13.23,13.23,0,0,0,2.31,2.3,4.16,4.16,0,0,1-.23.42,9.55,9.55,0,0,1-1.68,2,14.73,14.73,0,0,1-4,2.52,10.15,10.15,0,0,1-4,1h-.17a.47.47,0,0,1-.58-.58v-.47a16,16,0,0,1,.18-1.62c0-.19.07-.4.11-.63a28,28,0,0,0,.29-4.11c0-.51,0-1-.06-1.45a18.39,18.39,0,0,0-1.56-7,12.63,12.63,0,0,0-7-6.54,15.59,15.59,0,0,0-5.39-1,22.67,22.67,0,0,0-5.38.87c-2.24.58-4.28,2.22-6.14,4.92a14.74,14.74,0,0,0-1.21,2.69,17.52,17.52,0,0,0-.81,3,2.4,2.4,0,0,1-.2.87,1,1,0,0,1-.61.34c-.21.09-.41.21-.61.31a3,3,0,0,0-1.85.62,9.8,9.8,0,0,0-1.77,2.66A17.19,17.19,0,0,1,664,62.06c-.58.47-1.09.85-1.53,1.16a4.8,4.8,0,0,1-.72.46,4.08,4.08,0,0,1-.47-1c-.27-.67-.58-1.51-.92-2.52A32.14,32.14,0,0,1,659,55.72a48.67,48.67,0,0,1-.69-5.12v-.69a12.86,12.86,0,0,1,.55-3.59,3.89,3.89,0,0,1,1.36-2.38.79.79,0,0,0,.35-.23,3.54,3.54,0,0,0,.34-.4,1.11,1.11,0,0,0,.24-.58,1.77,1.77,0,0,0-.24-.64q-1.28-1.91-6.19-1.91h-.87q-7.75.65-10.76,6a15.13,15.13,0,0,0-1.57,6.43,18.45,18.45,0,0,0,.54,3.69,17.69,17.69,0,0,1-5.52,5.8c-.57.47-1.09.85-1.53,1.16a4.8,4.8,0,0,1-.72.46,4.08,4.08,0,0,1-.47-1c-.27-.67-.58-1.51-.92-2.52a32.14,32.14,0,0,1-1.28-4.43A48.67,48.67,0,0,1,631,50.6v-.69a12.86,12.86,0,0,1,.55-3.59,3.94,3.94,0,0,1,1.36-2.38.79.79,0,0,0,.35-.23,3.54,3.54,0,0,0,.34-.4,1.11,1.11,0,0,0,.24-.58,1.77,1.77,0,0,0-.24-.64c-.84-1.27-2.91-1.91-6.19-1.91h-.87q-7.75.65-10.77,6a15.25,15.25,0,0,0-1.56,6.43,19.9,19.9,0,0,0,.7,4.37l0,.14a14.73,14.73,0,0,0-.62,2.2,60.12,60.12,0,0,1-3,9.79,39.33,39.33,0,0,1-5.18,8.74,21.47,21.47,0,0,1-4.58,4.74,4.9,4.9,0,0,1-2.89,1.1,5.78,5.78,0,0,1-2.06-.6c-.9-.41-1.82-2.23-2.74-5.47a43.68,43.68,0,0,1-1.57-9.79l-.17-2.14a18.82,18.82,0,0,0,12.33-8.1,19.62,19.62,0,0,0,2.78-7.64,19.42,19.42,0,0,0,.17-2.49,16.9,16.9,0,0,0-.93-5.5q-2.37-5.61-7.29-7a15.85,15.85,0,0,0-3.76-.46,16.63,16.63,0,0,0-9,2.78,20.76,20.76,0,0,0-6.69,8.83A42,42,0,0,0,576.5,59c-.08.76-.14,1.51-.17,2.25,0,.13,0,.23-.06.36-.12.69-.44,2.25-1,4.66s-1.21,5.06-2.08,8a48.24,48.24,0,0,1-3,7.64q-1.65,3.3-3.56,3.65a1.06,1.06,0,0,1-.35,0c-1.2,0-2.41-1.35-3.65-4q-2.6-5.73-3-16.49V58.56q0-2.93.12-7.44t.2-7.87c.06-2.24.11-3.53.14-3.88a.75.75,0,0,1,.15-.2.68.68,0,0,1,.32-.15,5.67,5.67,0,0,1,.72-.08l1.33-.06c.56,0,1.28,0,2.17,0l3.13-.09a7.7,7.7,0,0,0,1.5-.14,3.3,3.3,0,0,0,.87-.35c.7-.34,1-.71,1-1.1a1.11,1.11,0,0,0-.11-.46c-.2-.46-.93-.82-2.2-1.07s-3.51-.51-6.72-.78l-1.85-.12v-3a28.84,28.84,0,0,0-.43-5.79,5.17,5.17,0,0,0-1.42-2.83,7.13,7.13,0,0,0-3.88-1.28h-.75a8.31,8.31,0,0,0-3.59.76A6.68,6.68,0,0,0,547.44,26a36,36,0,0,0-2.31,7.56l-.12.57h-2a10.8,10.8,0,0,0-5.15.93,2.1,2.1,0,0,0-.92.93,1,1,0,0,0-.12.46.87.87,0,0,0,.17.52,4.36,4.36,0,0,0,2.23,1.19,15,15,0,0,0,3.74.55h1.5l-.17,2.2q-.35,5.67-.35,12.38c0,1.34,0,2.57,0,3.72-.26,1.08-.52,2.22-.78,3.46q-1.15,5.33-2.81,11.32a75.58,75.58,0,0,1-4.08,11.31c-1.7,3.67-2.91,5.64-3.65,5.91h-.11q-1,0-1.1-5.62-.12-4.22-.12-13.31c0-1.23,0-2.55.06-3.94,0-1.08.06-2.17.06-3.29q0-3.36-.29-7.67a23.34,23.34,0,0,0-2.32-8.54,9.7,9.7,0,0,0-6.08-5,7.51,7.51,0,0,0-1.79-.23,7.88,7.88,0,0,0-5.56,2.55Q510,49.74,502.46,66.4c-.54,1.2-.86,1.8-1,1.8s-.06,0-.06-.12,0-.72.06-1.59.12-1.88.23-3,.21-2.74.29-4.4.12-3.26.12-4.8V50.78a7.75,7.75,0,0,0-.12-1.65,3.24,3.24,0,0,0-.35-.9q-1.84-3.58-7.52-3.59h-1q-5.22.34-6.6,4.11a20.23,20.23,0,0,0-1.19,4.6A40.09,40.09,0,0,0,485,58a12.15,12.15,0,0,1-1.17,1.28,14.78,14.78,0,0,1-4,2.52,10.11,10.11,0,0,1-4,1h-.18a.46.46,0,0,1-.57-.58v-.47a14.84,14.84,0,0,1,.17-1.62c0-.19.08-.4.11-.63a28,28,0,0,0,.29-4.11c0-.51,0-1-.05-1.45A18.58,18.58,0,0,0,474,47a12.6,12.6,0,0,0-7-6.54,15.58,15.58,0,0,0-5.38-1,22.66,22.66,0,0,0-5.39.87q-3.36.87-6.13,4.92a14.06,14.06,0,0,0-1.22,2.69,18.47,18.47,0,0,0-.81,3,2.4,2.4,0,0,1-.2.87,1,1,0,0,1-.61.34q-4.17,1.64-5.62,9.67a27.19,27.19,0,0,0-.4,4.52,25.13,25.13,0,0,0,1.13,7,13.65,13.65,0,0,0,4.95,6.86c2.51,1.93,5.8,2.89,9.9,2.89h.23a14,14,0,0,0,10.07-4.68,29.53,29.53,0,0,0,5.73-10l.75-2.08a38,38,0,0,0,6.77-1,17,17,0,0,0,4.5-1.89c.17,1.14.4,2.32.71,3.57a22.48,22.48,0,0,0,3.36,7.44,10.71,10.71,0,0,0,6,4.34,9.35,9.35,0,0,0,2.2.23L499,79a6.68,6.68,0,0,0,2.14-.43,3.52,3.52,0,0,0,1.6-1.19,15,15,0,0,0,1.7-3c.66-1.42,1.53-3.51,2.61-6.25,1.43-3.59,2.53-6.34,3.33-8.25s1.51-3.52,2.17-4.83a38.14,38.14,0,0,1,2.34-4.25,29.73,29.73,0,0,1,2.34-3.27l.76-.87V49.1q0,3.52-.76,15.86-.35,5.08-.34,9.09a45,45,0,0,0,.92,10.36,15.68,15.68,0,0,0,4.43,7.84,11.29,11.29,0,0,0,7.67,3.21,9.91,9.91,0,0,0,6.2-2,15,15,0,0,0,4-5,48.23,48.23,0,0,0,2.63-6.2c.58-1.62,1.36-4.29,2.32-8,.21-.81.4-1.59.6-2.39a33.31,33.31,0,0,0,2.87,8.32A22.06,22.06,0,0,0,556,88.86a14.4,14.4,0,0,0,7.81,2.43,11,11,0,0,0,1.62-.11,13.67,13.67,0,0,0,9.44-6,34.44,34.44,0,0,0,4.06-8.09,18.32,18.32,0,0,0,4,5.31,22.68,22.68,0,0,0,9,4.92,19.09,19.09,0,0,0,4.8.64,23.41,23.41,0,0,0,6-1q3.54-1,7.24-5.41a46.32,46.32,0,0,0,6.37-10.57c.78-1.82,1.48-3.68,2.12-5.59,1.7,3.71,2.57,5.66,2.57,5.8a2.6,2.6,0,0,1-.53.49c-.34.29-.77.63-1.27,1a41.13,41.13,0,0,0-3.76,3.5,28.61,28.61,0,0,0-3,3.62,18.32,18.32,0,0,0-3.24,8.74v.87a10.15,10.15,0,0,0,2.46,6.74q2.46,2.92,8.25,3.39h.75A18.55,18.55,0,0,0,628.13,98a17.47,17.47,0,0,0,6.54-5,16,16,0,0,0,1.88-2.91A10.1,10.1,0,0,0,639,96.24q2.46,2.92,8.24,3.39H648A18.55,18.55,0,0,0,655.51,98a17.47,17.47,0,0,0,6.54-5,15.84,15.84,0,0,0,2.46-4.22,20.43,20.43,0,0,0,1.13-5.44c.08-1,.12-1.89.12-2.78a32.21,32.21,0,0,0-.26-3.71A37.36,37.36,0,0,0,664,70.69c-.27-.85-.48-1.56-.63-2.14a5.51,5.51,0,0,1-.24-.87v-.06l.58-.35a13.76,13.76,0,0,0,1.28-.81c1-.62,2-1.35,3.1-2.17-.06.69-.09,1.38-.09,2.06a24.76,24.76,0,0,0,1.13,7A13.65,13.65,0,0,0,674,80.18q3.75,2.89,9.89,2.89h.24a14,14,0,0,0,10.07-4.68,29.53,29.53,0,0,0,5.73-10l.75-2.08a38,38,0,0,0,6.77-1,18.72,18.72,0,0,0,6.2-3,14.56,14.56,0,0,0,3.1-3.12l.14.05a24.4,24.4,0,0,0,8.1,1.28h.75c.81,0,1.51-.06,2.09-.06h.87l-.12.35c-.11.27-.25.58-.4.92a.17.17,0,0,0-.06.12c-1,2.51-2,5.18-2.87,8a74,74,0,0,0-2,7.67,40.43,40.43,0,0,0-.93,8.22,30.25,30.25,0,0,0,.23,3.76q1.05,6.14,4.4,9.46a11.86,11.86,0,0,0,7.76,3.62h.75a14.16,14.16,0,0,0,6.72-1.88,18.61,18.61,0,0,0,6.36-6.22,102.08,102.08,0,0,0,5-10q2.49-5.49,4.71-11.09a27.14,27.14,0,0,0,3.77,9A17.49,17.49,0,0,0,769,88.11a18.25,18.25,0,0,0,7.35,1.56c.5,0,1,0,1.44,0q6-.59,8.86-4.4a31.39,31.39,0,0,0,4.63-10q1.05-3.3,2.11-7.26c.72-2.65,1.32-5.06,1.83-7.24a25.62,25.62,0,0,0,.75-4.2A.84.84,0,0,0,795.83,56ZM592.62,58.21q.25-1.87,1-5.06a45.16,45.16,0,0,1,1.65-5.44A38.37,38.37,0,0,1,597,44.23c.54-.88.89-1.33,1-1.33h.06a13,13,0,0,1,.23,3.53c0,1.32,0,2.38-.11,3.19a18.77,18.77,0,0,1-.53,2.78q-1.09,5.49-4,8.22a8.56,8.56,0,0,1-.66.6,1.15,1.15,0,0,1-.38.26c-.15,0-.23-.25-.23-.75A24.18,24.18,0,0,1,592.62,58.21ZM467.73,66l-.52,1.21q-2.55,6.78-6.89,9.9l-.6.41a1.22,1.22,0,0,1-.32.17c-.08,0-.2-.22-.38-.66a16.8,16.8,0,0,1-.52-1.63c-.17-.63-.32-1.26-.43-1.88a46.5,46.5,0,0,1-.55-4.66c-.14-1.75-.21-3.3-.21-4.66a6.19,6.19,0,0,1,.24-2.37h.11a1.38,1.38,0,0,1,.38.09,5.85,5.85,0,0,1,.72.32c.54.27,1.36.61,2.46,1s2.18.82,3.24,1.18,1.84.61,2.35.73l.78.2c.21.06.32.11.32.15Zm1.33-6.72c-.07,1.16-.21,1.76-.4,1.8a9.83,9.83,0,0,1-1.13-.44c-.6-.25-1.29-.55-2.08-.92s-1.56-.74-2.29-1.13a17.45,17.45,0,0,1-3.36-2.37,10.62,10.62,0,0,1-2.25-2.61,7.18,7.18,0,0,1-.64-3.07c0-.38,0-1.08.14-2.08A7.83,7.83,0,0,1,458.47,45,4,4,0,0,1,462,43.13,4.82,4.82,0,0,1,466,45a12.87,12.87,0,0,1,2.23,4.51,25.44,25.44,0,0,1,.92,5.33c0,.77.06,1.48.06,2.14A20.19,20.19,0,0,1,469.06,59.28ZM623.53,86.72a14,14,0,0,1-1.59,5.39c-.7,1.11-1.37,1.67-2,1.67a1.27,1.27,0,0,1-.86-.34,5.16,5.16,0,0,1-1.8-4.17,12.55,12.55,0,0,1,.81-4.69,22.67,22.67,0,0,1,1.62-3.07,24.93,24.93,0,0,1,2-2.78c.54-.61.91-.92,1.1-.92a.14.14,0,0,1,.11.06,17.44,17.44,0,0,1,.82,5.61Q623.68,84.23,623.53,86.72Zm19.25-10.45a28.61,28.61,0,0,0-3,3.62,21.58,21.58,0,0,0-1.45,2.51c0-.64.06-1.27.06-1.87a32.21,32.21,0,0,0-.26-3.71,37.36,37.36,0,0,0-1.54-6.13c-.27-.85-.48-1.56-.63-2.14a4.92,4.92,0,0,1-.23-.87v-.06l.58-.35c.34-.19.77-.46,1.27-.81a46.57,46.57,0,0,0,4.31-3.12c.79-.64,1.47-1.24,2-1.78.38.85.79,1.74,1.28,2.7,2.08,4.52,3.12,6.85,3.12,7s-.17.2-.52.49-.77.63-1.27,1A42.48,42.48,0,0,0,642.78,76.27Zm8.13,10.45a14.14,14.14,0,0,1-1.59,5.39c-.7,1.11-1.37,1.67-2,1.67a1.31,1.31,0,0,1-.87-.34,5.18,5.18,0,0,1-1.79-4.17,12.55,12.55,0,0,1,.81-4.69,22.67,22.67,0,0,1,1.62-3.07,24.93,24.93,0,0,1,2-2.78c.54-.61.91-.92,1.1-.92a.17.17,0,0,1,.12.06,18,18,0,0,1,.81,5.61Q651.06,84.23,650.91,86.72ZM694.41,66c-.15.35-.33.75-.52,1.21Q691.34,74,687,77.11l-.61.41a1.24,1.24,0,0,1-.31.17c-.08,0-.21-.22-.38-.66a16.8,16.8,0,0,1-.52-1.63c-.17-.63-.32-1.26-.44-1.88-.23-1.35-.41-2.9-.54-4.66s-.21-3.3-.21-4.66a6.52,6.52,0,0,1,.23-2.37h.12a1.38,1.38,0,0,1,.38.09,5.85,5.85,0,0,1,.72.32c.54.27,1.36.61,2.46,1s2.18.82,3.24,1.18,1.84.61,2.35.73l.78.2c.21.06.31.11.31.15Zm1.33-6.72c-.08,1.16-.21,1.76-.4,1.8a9.83,9.83,0,0,1-1.13-.44c-.6-.25-1.29-.55-2.08-.92s-1.56-.74-2.29-1.13a17.45,17.45,0,0,1-3.36-2.37,10.92,10.92,0,0,1-2.26-2.61,7.33,7.33,0,0,1-.63-3.07c0-.38,0-1.08.14-2.08A7.83,7.83,0,0,1,685.15,45a4,4,0,0,1,3.53-1.91,4.82,4.82,0,0,1,4,1.86,12.69,12.69,0,0,1,2.22,4.51,25.47,25.47,0,0,1,.93,5.33c0,.77.06,1.48.06,2.14A20.19,20.19,0,0,1,695.74,59.28Zm25.7-10.13-.63.76-.23-1.33a18.8,18.8,0,0,1-.18-2.72c0-.47,0-1.24.09-2.32a18.73,18.73,0,0,1,.43-3.13,17.3,17.3,0,0,1,.73-2,14.55,14.55,0,0,1,.84-1.68c.27-.47.48-.7.63-.7s.21.12.38.35.36.5.55.81a5.49,5.49,0,0,1,.46,1.24,8.84,8.84,0,0,1,.12,1.71,14.54,14.54,0,0,1-1.74,6.6,13.23,13.23,0,0,1-.78,1.36C721.82,48.59,721.6,48.92,721.44,49.15Z"/><path class="cls-1" d="M764.86,33.53a10.27,10.27,0,0,0,3.07.46,23.4,23.4,0,0,0,2.63-.23,4.51,4.51,0,0,0,3.1-2.26,8.11,8.11,0,0,0,1-3.76,9.12,9.12,0,0,0-.61-2.78A5.65,5.65,0,0,0,770.82,22a8.06,8.06,0,0,0-3.53-.76,12.8,12.8,0,0,0-2.84.35,5.8,5.8,0,0,0-3.82,3.47,7.21,7.21,0,0,0-.35,2.15,8.63,8.63,0,0,0,.84,3.32A6,6,0,0,0,764.86,33.53Z"/><path class="cls-2" d="M243.2,93.27H280v4H247.71V153h26.91v4H247.71v34.83H280v4H243.2Z"/><path class="cls-2" d="M331.31,142.86H288.82v-4.24h42.49Z"/><path class="cls-2" d="M368.32,193.13V197a23.09,23.09,0,0,1-16.52-6.49Q345,184,345,173.87V93.27h4.37v80.6a18.79,18.79,0,0,0,19,19.26Z"/><path class="cls-2" d="M404.52,197.36h-1.23q-13,0-22.6-9.76t-9.63-22.75a30.59,30.59,0,0,1,9.56-22.47q9.56-9.49,23.63-9.49t24.18,11.2l-42.89,42.34q8.88,7.11,17.07,7.11a28.73,28.73,0,0,0,14.69-3.76,32.26,32.26,0,0,0,10.72-10v7Q418.32,197.36,404.52,197.36Zm-1.43-60.65q-10.86,0-19.26,8.4t-8.4,19.33a28,28,0,0,0,7.24,19.13l39.75-39.48A28.6,28.6,0,0,0,403.09,136.71Z"/><path class="cls-2" d="M502.74,134.25v61.47h-4.37v-15.3a28.76,28.76,0,0,1-11.47,12.3,31.85,31.85,0,0,1-16.4,4.51,31.43,31.43,0,0,1-22.95-9.5,31.84,31.84,0,0,1,0-45.49,31.46,31.46,0,0,1,22.95-9.49,32.91,32.91,0,0,1,16.74,4.64,25.27,25.27,0,0,1,11.13,12.3V134.25Zm-60.38,30.87a28.69,28.69,0,0,0,28.35,28.28,26.6,26.6,0,0,0,19.74-8.4,28.38,28.38,0,0,0-.07-40,26.65,26.65,0,0,0-19.74-8.47,27,27,0,0,0-19.88,8.54A27.62,27.62,0,0,0,442.36,165.12Z"/><path class="cls-2" d="M541.81,136.57A17.64,17.64,0,0,0,529,142a17.32,17.32,0,0,0-5.54,12.7v41h-4.37V134.25h4.37v9.15a19.39,19.39,0,0,1,7.65-7.65,22.78,22.78,0,0,1,11.61-3,20.35,20.35,0,0,1,12.3,4.37v5.46Q549,136.58,541.81,136.57Z"/><path class="cls-2" d="M571,195.72h-4.37V134.25H571v12.43q7-13.94,23.77-13.93a25.93,25.93,0,0,1,19.26,7.92,26.48,26.48,0,0,1,7.78,19.26v35.79h-4.37V159.93a23,23,0,0,0-6.62-16.39,21.36,21.36,0,0,0-16.05-7,23.13,23.13,0,0,0-16.6,7A22.14,22.14,0,0,0,571,159.93Z"/><path class="cls-2" d="M642.21,119.36q-4,0-4-3.69t4-3.68q4,0,4,3.68T642.21,119.36Zm2.18,15v61.33H640V134.39Z"/><path class="cls-2" d="M666.93,195.72h-4.37V134.25h4.37v12.43q7-13.94,23.77-13.93A25.93,25.93,0,0,1,710,140.67a26.49,26.49,0,0,1,7.79,19.26v35.79h-4.37V159.93a23,23,0,0,0-6.63-16.39,21.36,21.36,0,0,0-16-7,23.14,23.14,0,0,0-16.6,7,22.14,22.14,0,0,0-7.17,16.39Z"/><path class="cls-2" d="M791.24,134.25h4.37V190q0,15.84-8.74,25t-23,9.16a34.65,34.65,0,0,1-15.16-3.55,29.45,29.45,0,0,1-11.48-9.29V205a28.28,28.28,0,0,0,11.13,10.93,30.74,30.74,0,0,0,15.51,4.37q12,0,19.67-8.13T791.24,190v-9.16a27.81,27.81,0,0,1-11.61,12,32.72,32.72,0,0,1-16.4,4.51,31.42,31.42,0,0,1-23-9.49,31.84,31.84,0,0,1,0-45.49,31.42,31.42,0,0,1,23-9.49,32.73,32.73,0,0,1,16.6,4.44,27.36,27.36,0,0,1,11.41,12.22Zm-56.15,30.87a28.7,28.7,0,0,0,28.35,28.42,26.6,26.6,0,0,0,19.74-8.4,28.55,28.55,0,0,0,0-40,26.6,26.6,0,0,0-19.74-8.4,28.7,28.7,0,0,0-28.35,28.41Z"/><path class="cls-2" d="M196.43,100.82V169a28,28,0,0,1-28,28H100.3V168.42a11.05,11.05,0,0,0-11-11.09,10.73,10.73,0,0,0-4,.78,8.57,8.57,0,0,0-1,.47A11,11,0,0,1,79,159.94h-.32a11.07,11.07,0,0,1-10.72-10.52,11,11,0,0,1,11-11.58,11.07,11.07,0,0,1,5.45,1.44,9.32,9.32,0,0,0,1,.48,10.47,10.47,0,0,0,4,.8,10.9,10.9,0,0,0,10.85-10.94V100.82h28.8a7,7,0,0,1,5.78,3.09,6.62,6.62,0,0,1,.65,6.28,4.7,4.7,0,0,1-.27.55,15.07,15.07,0,0,0,13.1,22.48l.73,0a15.07,15.07,0,0,0,12.42-22.4,4,4,0,0,1-.27-.55,6.67,6.67,0,0,1,.68-6.32,7,7,0,0,1,5.82-3.11Z"/><path class="cls-1" d="M128.52,48.08A11.07,11.07,0,0,1,112,58.23a7.75,7.75,0,0,0-1-.49,10.67,10.67,0,0,0-4-.8A10.9,10.9,0,0,0,96.13,67.88V96.67H67.34a6.93,6.93,0,0,1-5.78-3.09,6.59,6.59,0,0,1-.66-6.28,4.72,4.72,0,0,1,.26-.55,15.06,15.06,0,0,0-13.1-22.48l-.72,0A15,15,0,0,0,34.93,86.68a4.9,4.9,0,0,1,.26.56,6.67,6.67,0,0,1-.67,6.32,7,7,0,0,1-5.83,3.11H0V28.51a28,28,0,0,1,28-28H96.13V29.07a11.06,11.06,0,0,0,11,11.09,10.73,10.73,0,0,0,4-.78,7.29,7.29,0,0,0,1-.47,11.07,11.07,0,0,1,5.31-1.36h.32A11.09,11.09,0,0,1,128.52,48.08Z"/><path class="cls-3" d="M196.43,28.51V96.67H167.91a11.09,11.09,0,0,0-9.21,4.9,10.86,10.86,0,0,0-1.11,10.13,6.62,6.62,0,0,0,.48,1,11.07,11.07,0,0,1-9.18,16.36h-.53a11.06,11.06,0,0,1-9.62-16.5,8.61,8.61,0,0,0,.49-1,10.68,10.68,0,0,0-1-10,11,11,0,0,0-9.11-4.87H100.3V67.88a6.93,6.93,0,0,1,6.85-6.94,6.66,6.66,0,0,1,2.52.5,4,4,0,0,1,.55.27,15.06,15.06,0,1,0,8.24-28.14l-.82,0a15,15,0,0,0-7.35,1.92,4.72,4.72,0,0,1-.55.26,6.75,6.75,0,0,1-2.53.5,7,7,0,0,1-6.91-7V.54h68.17A28,28,0,0,1,196.43,28.51Z"/><path class="cls-4" d="M67.89,138.49a15,15,0,0,0-4.14,11.12A15.19,15.19,0,0,0,78,163.92l.82,0A15.06,15.06,0,0,0,86.14,162a4.9,4.9,0,0,1,.56-.26,6.51,6.51,0,0,1,2.52-.5,7,7,0,0,1,6.91,7V197H28A28,28,0,0,1,0,169V100.82H28.53a11.08,11.08,0,0,0,9.2-4.9,10.86,10.86,0,0,0,1.11-10.13,7.73,7.73,0,0,0-.47-1,11.07,11.07,0,0,1,9.17-16.36h.52a11,11,0,0,1,9.62,16.5,10.55,10.55,0,0,0-.48,1,10.68,10.68,0,0,0,1,10,11,11,0,0,0,9.11,4.86H96.13v28.79a6.9,6.9,0,0,1-6.85,6.94,6.51,6.51,0,0,1-2.52-.5,4.72,4.72,0,0,1-.55-.26,15.06,15.06,0,0,0-18.32,2.7Z"/></g></g></svg>